<?xml version="1.0" standalone="no"?>
<!DOCTYPE svg PUBLIC "-//W3C//DTD SVG 20010904//EN"
 "http://www.w3.org/TR/2001/REC-SVG-20010904/DTD/svg10.dtd">
<svg version="1.0" xmlns="http://www.w3.org/2000/svg"
 width="512.000000pt" height="512.000000pt" viewBox="0 0 512.000000 512.000000"
 preserveAspectRatio="xMidYMid meet">
<metadata>
Created by potrace 1.11, written by Peter Selinger 2001-2013
</metadata>
<g transform="translate(0.000000,512.000000) scale(0.100000,-0.100000)"
fill="#000000" stroke="none">
<path d="M2545 5112 c-12 -8 -156 -245 -270 -442 -133 -229 -222 -394 -332
-616 -272 -543 -345 -803 -298 -1051 61 -314 266 -566 565 -692 30 -13 59 -24
65 -26 5 -1 17 -5 25 -8 8 -4 49 -13 90 -20 67 -13 -30 -14 -856 -15 -921 0
-932 0 -972 -21 -67 -34 -87 -72 -87 -166 1 -92 12 -175 35 -265 5 -19 11 -47
14 -61 2 -14 23 -84 47 -155 48 -145 156 -365 242 -496 175 -264 418 -493 699
-659 49 -28 88 -52 88 -53 0 0 -18 -2 -41 -4 -129 -9 -258 -111 -304 -241 -19
-56 -19 -86 1 -105 14 -15 142 -16 1302 -14 l1286 3 12 23 c21 42 -23 157 -85
221 -59 62 -104 87 -199 111 l-43 11 103 62 c274 165 501 381 673 642 165 249
267 498 320 782 41 218 36 282 -27 340 -49 46 -34 45 -1013 46 -511 0 -919 2
-905 4 457 70 796 444 806 889 3 163 -34 304 -157 597 -50 120 -251 525 -328
662 -22 39 -54 97 -72 130 -17 33 -39 71 -48 85 -30 47 -41 65 -56 95 -8 17
-19 37 -25 45 -11 17 -89 145 -163 270 -47 78 -64 100 -77 100 -3 0 -10 -4
-15 -8z"/>
</g>
</svg>
